<svg width="34" height="34" viewBox="0 0 34 34" fill="none" xmlns="http://www.w3.org/2000/svg">
<path d="M7.30204 25.065H8.70013C9.0203 25.065 9.14837 25.001 9.38316 24.8195L10.0982 24.2753C10.4931 24.6701 11.0801 24.7555 11.6671 24.4994L15.1996 23.0266C15.4664 22.9199 15.6052 22.8131 15.7759 22.6424L26.0855 12.4075C27.1101 11.383 27.1101 10.1556 26.0748 9.10973L23.7589 6.78314C22.7237 5.74791 21.4964 5.73724 20.4718 6.76179L10.1622 16.986C9.98082 17.1674 9.88477 17.2955 9.76737 17.573L8.27323 21.0949C8.02776 21.6605 8.0918 22.2155 8.48668 22.653L6.94985 24.2432C6.619 24.5954 6.77909 25.065 7.30204 25.065ZM21.6565 8.17055C21.9339 7.90374 22.2648 7.89307 22.5209 8.15988L24.6981 10.3477C24.9649 10.6145 24.9542 10.9347 24.6661 11.2122L23.9724 11.9059L20.9521 8.87493L21.6565 8.17055ZM12.0513 17.7224L19.7995 10.0276L22.8091 13.0585L15.0716 20.7534L12.0513 17.7224ZM11.4536 22.6104C11.2508 22.6851 11.1121 22.6851 10.9307 22.5036L10.2583 21.8419C10.0875 21.6712 10.0875 21.5111 10.1622 21.3297L11.1228 19.0991L13.6842 21.6819L11.4536 22.6104ZM6.93917 28.8537H27.4196C27.9319 28.8537 28.3481 28.4162 28.3481 27.9039C28.3481 27.3916 27.9319 26.9647 27.4196 26.9647H6.93917C6.41622 26.9647 6 27.3916 6 27.9039C6 28.4162 6.4269 28.8537 6.93917 28.8537Z" fill="#1C1C1E"/>
</svg>
