<svg width="34" height="34" viewBox="0 0 34 34" fill="none" xmlns="http://www.w3.org/2000/svg">
<path d="M22.5413 13.6402L20.383 11.4819C19.5663 10.6652 18.4463 10.7119 17.898 11.5752L16.6963 13.4769L20.5346 17.3152L22.4363 16.1136C23.2646 15.6002 23.3113 14.3986 22.5413 13.6402Z" stroke="black" stroke-width="2" stroke-linecap="round" stroke-linejoin="round"/>
<path d="M16.697 13.4768L13.9087 13.3135C12.3454 13.2201 11.8087 13.6984 11.6337 15.1801L10.9337 21.0951C10.782 22.3435 11.6804 23.2301 12.9287 23.0901L18.8437 22.3901C20.3254 22.2151 20.862 21.6784 20.7104 20.1151L20.547 17.3268" stroke="black" stroke-width="2" stroke-linecap="round" stroke-linejoin="round"/>
<path d="M11.7383 22.2736L13.8966 20.1152" stroke="black" stroke-width="2" stroke-linecap="round" stroke-linejoin="round"/>
<path d="M13.4997 28.6668H20.4997C26.333 28.6668 28.6663 26.3335 28.6663 20.5002V13.5002C28.6663 7.66683 26.333 5.3335 20.4997 5.3335H13.4997C7.66634 5.3335 5.33301 7.66683 5.33301 13.5002V20.5002C5.33301 26.3335 7.66634 28.6668 13.4997 28.6668Z" stroke="black" stroke-width="2" stroke-linecap="round" stroke-linejoin="round"/>
</svg>
