<svg width="34" height="34" viewBox="0 0 34 34" fill="none" xmlns="http://www.w3.org/2000/svg">
<path d="M6.55221 20.2111C7.19506 20.8138 8.39038 20.9645 9.33457 20.1107C9.67609 19.7993 10.339 19.0962 11.3636 18.0616C16.3658 13.0091 19.4294 9.82498 19.9618 10.3172C20.3937 10.6989 18.6861 13.1096 16.9785 15.4801C13.8547 19.8094 11.223 22.9835 13.2118 24.9723C14.7587 26.5292 17.0991 25.133 20.8859 21.8082C22.9149 20.0303 24.3011 18.7245 24.6426 19.056C24.8636 19.277 24.3212 20.1509 23.6482 21.306C22.6839 22.9835 21.3881 24.8719 22.6538 26.1375C23.5377 27.0214 25.2152 26.6297 27.1638 24.7111C27.5656 24.3094 27.656 23.8272 27.3145 23.4857C26.9931 23.1743 26.541 23.2245 26.1995 23.5359C24.964 24.7212 24.0299 25.2535 23.8792 25.0928C23.6984 24.912 24.2408 23.9578 25.1549 22.3306C26.4306 20.0504 27.214 18.5136 26.0288 17.3585C24.4417 15.8116 22.5835 17.4388 19.3792 20.2614C16.6973 22.6219 15.5522 23.2748 15.3212 23.0136C14.9696 22.652 16.0042 21.2357 18.9373 17.1375C22.1415 12.6576 24.06 9.72453 22.2419 7.95667C19.8814 5.64641 16.6873 7.33391 8.88256 15.0683C7.72743 16.2033 7.00422 16.8964 6.63256 17.3384C5.69841 18.4131 5.90935 19.5884 6.55221 20.2111Z" fill="#1C1C1E"/>
</svg>
