<svg width="34" height="34" viewBox="0 0 34 34" fill="none" xmlns="http://www.w3.org/2000/svg">
<path d="M10.3288 6.85275C10.4461 6.85275 10.5422 6.76737 10.5742 6.6393C10.7877 5.44399 10.7343 5.42264 12.047 5.17718C12.1751 5.14516 12.2605 5.04911 12.2605 4.93171C12.2605 4.80364 12.1751 4.70759 12.047 4.68624C10.7343 4.43011 10.777 4.38742 10.5742 3.22412C10.5422 3.09605 10.4568 3 10.3288 3C10.2007 3 10.1153 3.09605 10.0833 3.22412C9.83782 4.38742 9.91253 4.43011 8.61049 4.68624C8.48242 4.70759 8.39704 4.80364 8.39704 4.93171C8.39704 5.05978 8.48242 5.14516 8.62116 5.17718C9.91253 5.4013 9.83782 5.44399 10.0833 6.62863C10.1153 6.76737 10.2007 6.85275 10.3288 6.85275ZM6.87088 11.8154C7.04164 11.8154 7.19106 11.6767 7.22307 11.5059C7.55392 9.68094 7.4472 9.62758 9.4216 9.31808C9.60303 9.27539 9.7311 9.13665 9.7311 8.95522C9.7311 8.77379 9.60303 8.62437 9.4216 8.59235C7.4472 8.28285 7.55392 8.20815 7.22307 6.42585C7.19106 6.23375 7.05232 6.09501 6.87088 6.09501C6.67878 6.09501 6.55071 6.22307 6.50802 6.42585C6.1665 8.19747 6.2839 8.26151 4.3095 8.59235C4.12807 8.62437 4 8.77379 4 8.95522C4 9.14732 4.12807 9.27539 4.34152 9.31808C6.27323 9.61691 6.1665 9.68094 6.50802 11.4739C6.55071 11.6767 6.66811 11.8154 6.87088 11.8154ZM11.8015 19.6703C12.047 19.6703 12.2391 19.4889 12.2818 19.2434C12.9435 15.4334 13.3064 14.9318 17.0737 14.4302C17.3405 14.3982 17.522 14.1954 17.522 13.9392C17.522 13.6938 17.3405 13.5017 17.0737 13.459C13.3277 12.9574 12.8474 12.4878 12.2818 8.65639C12.2391 8.40025 12.047 8.21882 11.8015 8.21882C11.5561 8.21882 11.364 8.38958 11.3106 8.64572C10.6596 12.4664 10.2861 12.9574 6.51869 13.459C6.25188 13.5017 6.07045 13.6938 6.07045 13.9392C6.07045 14.1954 6.25188 14.3982 6.51869 14.4302C10.2647 14.8677 10.7557 15.4014 11.3106 19.2328C11.3533 19.4889 11.5347 19.6703 11.8015 19.6703ZM13.904 9.39279C14.0961 10.4814 14.2028 10.9296 14.7471 11.2178C16.1346 10.6842 17.65 10.4067 19.1442 10.4067C23.68 10.4067 27.4046 13.1495 27.4046 17.3224C27.4046 19.2114 26.3908 20.983 24.8753 22.2958C23.9361 21.1004 22.442 20.364 20.7024 20.364C18.0556 20.364 16.1025 21.7515 16.1025 23.7899C16.1025 23.9286 16.1132 24.0674 16.1346 24.1954C11.9937 24.046 8.78125 22.0183 8.78125 18.2616C8.78125 17.728 8.8773 17.2264 9.03739 16.7674C8.73856 16.2658 8.11956 16.1378 7.19106 15.9883C6.94559 16.6927 6.81752 17.4505 6.81752 18.2509C6.81752 23.2349 11.0758 26.1592 16.5401 26.1592C16.9243 26.1592 17.3192 26.1378 17.7034 26.1165C18.173 26.3086 18.728 26.4153 19.347 26.4153C20.9478 26.4153 22.538 25.9884 23.9788 25.252C23.9788 25.3267 23.9895 25.4121 23.9895 25.4868C23.9895 26.7035 23.2744 27.9095 22.1004 28.6672C21.7269 28.9233 21.4814 29.2115 21.4814 29.6491C21.4814 30.1507 21.8763 30.5562 22.4847 30.5562C22.7408 30.5562 22.9329 30.4815 23.1677 30.3214C24.8753 29.2115 25.9425 27.3545 25.9425 25.4655C25.9425 24.9852 25.8892 24.5263 25.7718 24.0994C27.9062 22.4132 29.3684 19.9798 29.3684 17.3224C29.3684 12.0609 24.8219 8.43227 19.1335 8.43227C17.3405 8.43227 15.5369 8.77379 13.904 9.39279ZM18.0769 23.7579C18.0769 22.9148 19.2829 22.3384 20.8304 22.3384C21.8443 22.3384 22.6981 22.744 23.2637 23.4164C22.0578 24.0781 20.6917 24.4623 19.347 24.4623C18.6212 24.4623 18.0769 24.1741 18.0769 23.7579Z" fill="black"/>
</svg>
