<svg width="6" height="9" viewBox="0 0 6 9" fill="none" xmlns="http://www.w3.org/2000/svg">
<path d="M4.84416 4.27093L1.88312 1.16645C1.67532 0.944703 1.36364 0.944703 1.15584 1.16645C0.948051 1.3882 0.948051 1.72082 1.15584 1.94257L3.7013 4.71443L1.15584 7.48628C0.948051 7.70803 0.948051 8.04065 1.15584 8.2624C1.25974 8.37327 1.36364 8.42871 1.51948 8.42871C1.67532 8.42871 1.77922 8.37327 1.88312 8.2624L4.84416 5.15792C5.05195 4.88074 5.05195 4.54811 4.84416 4.27093C4.84416 4.32637 4.84416 4.32637 4.84416 4.27093Z" fill="#CFCFCF"/>
<path d="M4.84416 4.27093L1.88312 1.16645C1.67532 0.944703 1.36364 0.944703 1.15584 1.16645C0.948052 1.3882 0.948052 1.72082 1.15584 1.94257L3.7013 4.71443L1.15584 7.48628C0.948052 7.70803 0.948052 8.04065 1.15584 8.2624C1.25974 8.37327 1.36364 8.42871 1.51948 8.42871C1.67532 8.42871 1.77922 8.37327 1.88312 8.2624L4.84416 5.15792C5.05195 4.88074 5.05195 4.54811 4.84416 4.27093ZM4.84416 4.27093C4.84416 4.32637 4.84416 4.32637 4.84416 4.27093Z" stroke="#CFCFCF" stroke-width="0.5"/>
</svg>
