<svg width="10" height="8" viewBox="0 0 10 8" fill="none" xmlns="http://www.w3.org/2000/svg">
<path fill-rule="evenodd" clip-rule="evenodd" d="M4.12375 7.24575C3.93275 7.24575 3.73975 7.17275 3.59375 7.02575L1.21975 4.65275C0.92675 4.35975 0.92675 3.88575 1.21975 3.59275C1.51275 3.29975 1.98675 3.29975 2.27975 3.59275L4.12375 5.43475L8.33975 1.21975C8.63275 0.92675 9.10675 0.92675 9.39975 1.21975C9.69275 1.51275 9.69275 1.98675 9.39975 2.27975L4.65375 7.02575C4.50775 7.17275 4.31575 7.24575 4.12375 7.24575Z" fill="white"/>
<path d="M4.12375 7.24575C3.93275 7.24575 3.73975 7.17275 3.59375 7.02575L1.21975 4.65275C0.92675 4.35975 0.92675 3.88575 1.21975 3.59275C1.51275 3.29975 1.98675 3.29975 2.27975 3.59275L4.12375 5.43475L8.33975 1.21975C8.63275 0.92675 9.10675 0.92675 9.39975 1.21975C9.69275 1.51275 9.69275 1.98675 9.39975 2.27975L4.65375 7.02575C4.50775 7.17275 4.31575 7.24575 4.12375 7.24575" stroke="white" stroke-width="0.5"/>
</svg>
