<svg width="16" height="16" viewBox="0 0 16 16" fill="none" xmlns="http://www.w3.org/2000/svg">
<path d="M5.31442 13.0196C5.1369 12.8421 5.12077 12.5643 5.266 12.3685L5.31442 12.3125L9.6273 7.99935L5.31442 3.68624C5.1369 3.50872 5.12077 3.23095 5.266 3.03521L5.31442 2.97913C5.49193 2.80162 5.7697 2.78548 5.96544 2.93072L6.02152 2.97913L10.6882 7.6458C10.8657 7.82331 10.8818 8.10108 10.7366 8.29682L10.6882 8.3529L6.02152 13.0196C5.82626 13.2148 5.50968 13.2148 5.31442 13.0196Z" fill="black"/>
<path d="M9.31442 13.0196C9.1369 12.8421 9.12077 12.5643 9.266 12.3685L9.31442 12.3125L13.6273 7.99935L9.31442 3.68624C9.1369 3.50872 9.12077 3.23095 9.266 3.03521L9.31442 2.97913C9.49193 2.80162 9.7697 2.78548 9.96544 2.93072L10.0215 2.97913L14.6882 7.6458C14.8657 7.82331 14.8818 8.10108 14.7366 8.29682L14.6882 8.3529L10.0215 13.0196C9.82626 13.2148 9.50968 13.2148 9.31442 13.0196Z" fill="black"/>
</svg>
