<svg width="66" height="66" viewBox="0 0 66 66" fill="none" xmlns="http://www.w3.org/2000/svg">
<path d="M24.75 60.498H41.25C55 60.498 60.5 54.998 60.5 41.248V24.748C60.5 10.998 55 5.49805 41.25 5.49805H24.75C11 5.49805 5.5 10.998 5.5 24.748V41.248C5.5 54.998 11 60.498 24.75 60.498Z" stroke="#EAEAEA" stroke-width="6" stroke-linecap="round" stroke-linejoin="round"/>
<path d="M24.75 27.5C27.7876 27.5 30.25 25.0376 30.25 22C30.25 18.9624 27.7876 16.5 24.75 16.5C21.7124 16.5 19.25 18.9624 19.25 22C19.25 25.0376 21.7124 27.5 24.75 27.5Z" stroke="#EAEAEA" stroke-width="6" stroke-linecap="round" stroke-linejoin="round"/>
<path d="M7.34375 52.1116L20.9012 43.0091C23.0737 41.5516 26.2087 41.7166 28.1612 43.3941L29.0687 44.1916C31.2137 46.0341 34.6788 46.0341 36.8238 44.1916L48.2637 34.3741C50.4087 32.5316 53.8738 32.5316 56.0188 34.3741L60.5012 38.2241" stroke="#EAEAEA" stroke-width="6" stroke-linecap="round" stroke-linejoin="round"/>
</svg>
