<svg width="15" height="16" viewBox="0 0 15 16" fill="none" xmlns="http://www.w3.org/2000/svg">
<path fill-rule="evenodd" clip-rule="evenodd" d="M11.9196 12.4187C10.0095 14.329 7.18111 14.7417 4.86651 13.6713C4.52482 13.5337 4.24468 13.4225 3.97836 13.4225C3.23656 13.4269 2.31323 14.1462 1.83335 13.6669C1.35347 13.1869 2.07329 12.2629 2.07329 11.5166C2.07329 11.2502 1.96651 10.9751 1.82895 10.6327C0.758019 8.31852 1.17132 5.48918 3.08141 3.5795C5.51975 1.14027 9.48126 1.14027 11.9196 3.57888C14.3623 6.02188 14.3579 9.98006 11.9196 12.4187Z" stroke="black" stroke-linecap="round" stroke-linejoin="round"/>
<path d="M9.96203 8.25818H9.96766" stroke="black" stroke-width="2" stroke-linecap="round" stroke-linejoin="round"/>
<path d="M7.45813 8.25818H7.46375" stroke="black" stroke-width="2" stroke-linecap="round" stroke-linejoin="round"/>
<path d="M4.95031 8.25818H4.95594" stroke="black" stroke-width="2" stroke-linecap="round" stroke-linejoin="round"/>
</svg>
