<svg width="23" height="22" viewBox="0 0 23 22" fill="none" xmlns="http://www.w3.org/2000/svg">
<rect x="0.5" y="0.5" width="22" height="21" rx="3.5" fill="white" stroke="#767676"/>
<path d="M8.08464 8.6665H6.33464C5.69297 8.6665 5.16797 8.1415 5.16797 7.49984V6.33317C5.16797 5.6915 5.69297 5.1665 6.33464 5.1665H8.08464C8.7263 5.1665 9.2513 5.6915 9.2513 6.33317V7.49984C9.2513 8.1415 8.7263 8.6665 8.08464 8.6665Z" stroke="black" stroke-linecap="round" stroke-linejoin="round"/>
<path d="M16.132 8.08333H14.032C13.647 8.08333 13.332 7.76833 13.332 7.38333V6.45001C13.332 6.06501 13.647 5.75 14.032 5.75H16.132C16.517 5.75 16.832 6.06501 16.832 6.45001V7.38333C16.832 7.76833 16.517 8.08333 16.132 8.08333Z" stroke="black" stroke-linecap="round" stroke-linejoin="round"/>
<path d="M16.132 12.4583H14.032C13.647 12.4583 13.332 12.1433 13.332 11.7583V10.825C13.332 10.44 13.647 10.125 14.032 10.125H16.132C16.517 10.125 16.832 10.44 16.832 10.825V11.7583C16.832 12.1433 16.517 12.4583 16.132 12.4583Z" stroke="black" stroke-linecap="round" stroke-linejoin="round"/>
<path d="M9.25 6.9165H13.3333" stroke="black" stroke-miterlimit="10" stroke-linecap="round" stroke-linejoin="round"/>
<path d="M11.293 6.9165V14.4998C11.293 15.1415 11.818 15.6665 12.4596 15.6665H13.3346" stroke="black" stroke-miterlimit="10" stroke-linecap="round" stroke-linejoin="round"/>
<path d="M11.293 11.2915H13.3346" stroke="black" stroke-miterlimit="10" stroke-linecap="round" stroke-linejoin="round"/>
<path d="M16.132 16.8333H14.032C13.647 16.8333 13.332 16.5183 13.332 16.1333V15.2C13.332 14.815 13.647 14.5 14.032 14.5H16.132C16.517 14.5 16.832 14.815 16.832 15.2V16.1333C16.832 16.5183 16.517 16.8333 16.132 16.8333Z" stroke="black" stroke-linecap="round" stroke-linejoin="round"/>
</svg>
