<svg width="12" height="13" viewBox="0 0 12 13" fill="none" xmlns="http://www.w3.org/2000/svg">
<path d="M8.31539 7.0655C8.28714 7.0945 8.18047 7.2185 8.0811 7.3205C7.49854 7.962 5.97881 9.012 5.18339 9.3325C5.06259 9.384 4.75718 9.493 4.59401 9.5C4.43765 9.5 4.2886 9.464 4.14637 9.391C3.96907 9.289 3.82684 9.1285 3.7489 8.939C3.69873 8.8075 3.6208 8.414 3.6208 8.407C3.54286 7.9765 3.5 7.277 3.5 6.504C3.5 5.7675 3.54286 5.0965 3.60667 4.6595C3.61398 4.6525 3.69191 4.1635 3.77716 3.996C3.93351 3.69 4.23892 3.5 4.56576 3.5H4.59401C4.80687 3.5075 5.25451 3.6975 5.25451 3.7045C6.00706 4.0255 7.49172 5.024 8.08841 5.6875C8.08841 5.6875 8.25645 5.858 8.32952 5.9645C8.4435 6.1175 8.5 6.307 8.5 6.4965C8.5 6.708 8.43619 6.905 8.31539 7.0655" stroke="black"/>
</svg>
